<?xml version="1.0" encoding="utf-8"?>
<svg viewBox="-6376.524 -4504.388 6003.799 5848.961" style="shape-rendering: geometricprecision;" xmlns="http://www.w3.org/2000/svg">
  <defs>
    <linearGradient id="id0" gradientUnits="userSpaceOnUse" x1="8194.83" y1="1976.87" x2="6168.39" y2="6817.88">
      <stop offset="0" style="stop-opacity:1; stop-color:#4C377A"/>
      <stop offset="0.1608" style="stop-opacity:1; stop-color:#613A79"/>
      <stop offset="0.5412" style="stop-opacity:1; stop-color:#9E4D8B"/>
      <stop offset="1" style="stop-opacity:1; stop-color:#FF4CA6"/>
    </linearGradient>
    <linearGradient id="id1" gradientUnits="userSpaceOnUse" x1="5825.87" y1="6614.25" x2="3799.43" y2="1773.24">
      <stop offset="0" style="stop-opacity:1; stop-color:#00488C"/>
      <stop offset="0.1608" style="stop-opacity:1; stop-color:#004B8F"/>
      <stop offset="0.5412" style="stop-opacity:1; stop-color:#0088CC"/>
      <stop offset="1" style="stop-opacity:1; stop-color:#1FCBFF"/>
    </linearGradient>
    <linearGradient id="id2" gradientUnits="userSpaceOnUse" x1="5269.38" y1="3901.11" x2="8466.99" y2="4108.35">
      <stop offset="0" style="stop-opacity:1; stop-color:#4F377A"/>
      <stop offset="0.4" style="stop-opacity:1; stop-color:#774284"/>
      <stop offset="0.749" style="stop-opacity:1; stop-color:#C75799"/>
      <stop offset="1" style="stop-opacity:1; stop-color:#D55B9F"/>
    </linearGradient>
    <linearGradient id="id3" gradientUnits="userSpaceOnUse" x1="3286.01" y1="4082.22" x2="6482.98" y2="4242.38">
      <stop offset="0" style="stop-opacity:1; stop-color:#00488C"/>
      <stop offset="0.451" style="stop-opacity:1; stop-color:#005397"/>
      <stop offset="1" style="stop-opacity:1; stop-color:#00B2E8"/>
    </linearGradient>
    <linearGradient id="id4" gradientUnits="userSpaceOnUse" x1="3152.17" y1="2625.6" x2="6455.39" y2="5781.55">
      <stop offset="0" style="stop-opacity:1; stop-color:#00488C"/>
      <stop offset="0.451" style="stop-opacity:1; stop-color:#00569A"/>
      <stop offset="1" style="stop-opacity:1; stop-color:#00B2E8"/>
    </linearGradient>
    <linearGradient id="id5" gradientUnits="userSpaceOnUse" x1="4554.93" y1="6706" x2="7994.36" y2="4227.47">
      <stop offset="0" style="stop-opacity:1; stop-color:#6C3F81"/>
      <stop offset="0.2314" style="stop-opacity:1; stop-color:#6C3F81"/>
      <stop offset="0.4902" style="stop-opacity:1; stop-color:#994985"/>
      <stop offset="1" style="stop-opacity:1; stop-color:#F264AB"/>
    </linearGradient>
    <linearGradient id="id6" gradientUnits="userSpaceOnUse" x1="6304.46" y1="6097.69" x2="3320.84" y2="2309.46">
      <stop offset="0" style="stop-opacity:1; stop-color:#00488C"/>
      <stop offset="0.451" style="stop-opacity:1; stop-color:#00569A"/>
      <stop offset="1" style="stop-opacity:1; stop-color:#00B8F0"/>
    </linearGradient>
    <linearGradient id="id7" gradientUnits="userSpaceOnUse" x1="8272.82" y1="2981.53" x2="5289.2" y2="6769.76">
      <stop offset="0" style="stop-opacity:1; stop-color:#4C377A"/>
      <stop offset="0.451" style="stop-opacity:1; stop-color:#603A79"/>
      <stop offset="1" style="stop-opacity:1; stop-color:#EB4CA0"/>
    </linearGradient>
  </defs>
  <g id="Слой_x0020_1" transform="matrix(1, 0, 0, 1, -9362.657227, -5901.580566)">
    <g id="_1274009101952">
      <g>
        <path class="fil0" d="M5737.96 1443.82c-2946.79,450.09 -3464.75,4004.12 -1475.9,5223.55 775.63,475.6 1937.62,371.42 2217.07,-581.28 512.96,-1748.67 -1856.22,-1419.53 -2132.79,-2438.5 -405.61,-1494.39 1391.62,-2203.77 1391.62,-2203.77z" style="fill: url(#id1);"/>
        <path class="fil1" d="M6350.6 6365.71c55.94,-86.38 99.32,-180.03 128.53,-279.62 512.96,-1748.67 -1856.22,-1419.53 -2132.79,-2438.5 -405.61,-1494.39 1391.62,-2203.77 1391.62,-2203.77 -2311.36,391.18 -2796.43,3044.69 -1711.48,4421.95 541.33,687.17 1613.57,694.18 2324.12,499.94z" style="fill: url(#id6);"/>
        <path class="fil2" d="M6541.65 5487.02c-133.73,-984.63 -1634.44,-970.48 -2090.58,-1618.29 -41.74,-51.63 -72.69,-109.47 -90.46,-174.95l-0.1 -0.39c-5.2,-14.96 -9.94,-30.21 -14.17,-45.8 -405.61,-1494.39 1391.62,-2203.77 1391.62,-2203.77 -1895.18,650.6 -2323.18,3111.11 -956.71,4237.35 475,391.49 1529.13,155.8 1760.4,-194.15z" style="fill: url(#id4);"/>
        <path class="fil3" d="M4232.36 2953.83c-138.4,356.93 -196.2,729.38 -169.54,1101.53 157.47,1460.32 1067.98,1934.39 1891.26,1669.76 -13.49,-383.05 -140.44,-665.38 -338.37,-841.47 -495.11,-440.48 -1593.57,-614.93 -1383.35,-1929.82z" style="fill: url(#id3);"/>
        <path class="fil4" d="M6256.3 7147.3c2946.79,-450.09 3464.75,-4004.12 1475.9,-5223.55 -775.63,-475.6 -1937.62,-371.42 -2217.07,581.28 -512.96,1748.67 1856.22,1419.53 2132.79,2438.5 405.61,1494.39 -1391.62,2203.77 -1391.62,2203.77z" style="fill: url(#id0);"/>
        <path class="fil5" d="M5643.66 2225.41c-55.94,86.38 -99.32,180.03 -128.53,279.62 -512.96,1748.67 1856.22,1419.53 2132.79,2438.5 405.61,1494.39 -1391.62,2203.77 -1391.62,2203.77 2311.36,-391.18 2796.43,-3044.69 1711.48,-4421.95 -541.33,-687.17 -1613.57,-694.18 -2324.12,-499.94z" style="fill: url(#id7);"/>
        <path class="fil6" d="M5452.61 3104.1c133.73,984.63 1634.44,970.48 2090.58,1618.29 41.74,51.63 72.69,109.47 90.46,174.95l0.1 0.39c5.2,14.96 9.94,30.21 14.17,45.8 405.61,1494.39 -1391.62,2203.77 -1391.62,2203.77 1895.18,-650.6 2323.18,-3111.11 956.71,-4237.35 -475,-391.49 -1529.13,-155.8 -1760.4,194.15z" style="fill: url(#id5);"/>
        <path class="fil7" d="M7761.9 5637.29c138.4,-356.93 196.2,-729.38 169.54,-1101.53 -157.47,-1460.32 -1067.98,-1934.39 -1891.26,-1669.76 13.49,383.05 140.44,665.38 338.37,841.47 495.11,440.48 1593.57,614.93 1383.35,1929.82z" style="fill: url(#id2);"/>
      </g>
      <path class="fil8" d="M2076.55 8877.18l-267.88 0 -205.5 -3.25 0 -99.52 463.46 0c25.51,0 42.52,-2.35 51.02,-7.03 8.51,-4.7 12.76,-14.97 12.76,-30.84l0 -166.59c0,-15.87 -5.44,-25.96 -16.3,-30.29 -10.87,-4.33 -37.09,-6.5 -78.66,-6.5 -92.6,-1.43 -158.74,-2.16 -198.42,-2.16 -98.27,-0.72 -163.71,-10.82 -196.3,-30.29 -32.6,-19.47 -48.9,-57.69 -48.9,-114.66l0 -127.66c0,-54.8 14.88,-92.13 44.64,-111.96 29.77,-19.84 85.28,-29.75 166.54,-29.75l226.76 0 205.52 3.25 0 93.03 -422.36 0c-26.46,0 -43.7,2.53 -51.73,7.57 -8.04,5.05 -12.05,15.14 -12.05,30.29l0 142.8c0,16.59 5.67,27.04 17,31.37 11.35,4.32 40.16,6.49 86.47,6.49l189.92 3.24c101.09,1.45 167.47,10.82 199.12,28.14 31.66,17.3 47.49,55.16 47.49,113.58l0 153.61c0,56.25 -14.18,94.84 -42.52,115.76 -28.34,20.91 -85.04,31.37 -170.08,31.37zm1027.83 -3.25l-158.73 0 0 -656.64 -286.3 0 0 -97.36 731.33 0 0 97.36 -286.3 0 0 656.64zm1462.96 0l-177.17 0 -199.84 -309.39 -231.02 0 0 309.39 -158.74 0 0 -754 524.41 0c81.26,0 136.3,9.37 165.11,28.12 28.82,18.75 43.23,54.45 43.23,107.1l0 168.76c0,51.93 -14.41,87.8 -43.23,107.63 -28.81,19.84 -73.46,30.84 -133.94,33l211.19 309.39zm-194.18 -446.78l0 -173.08c0,-15.87 -3.78,-26.14 -11.33,-30.83 -7.56,-4.69 -23.62,-7.04 -48.2,-7.04l-354.32 0 0 248.82 354.32 0c24.58,0 40.64,-2.53 48.2,-7.57 7.55,-5.06 11.33,-15.15 11.33,-30.3zm1440.29 446.78l-167.25 0 -77.95 -176.33 -419.52 0 -76.54 176.33 -162.99 0 347.24 -754 208.35 0 348.66 754zm-456.38 -650.15l-171.5 377.54 344.42 0 -170.08 -377.54 -2.84 0zm1134.13 650.15l-158.73 0 0 -656.64 -286.3 0 0 -97.36 731.33 0 0 97.36 -286.3 0 0 656.64zm1402.01 0l-705.82 0 0 -754 697.32 0 0 97.36 -538.58 0 0 215.27 429.44 0 0 99.52 -429.44 0 0 239.08 547.08 0 0 102.77zm1009.42 5.41l-350.08 0c-83.15,0 -139.61,-11.18 -169.37,-33.53 -29.76,-22.36 -44.65,-66.71 -44.65,-133.07l0 -429.46c0,-66.36 14.89,-110.71 44.65,-133.07 29.76,-22.35 86.22,-33.53 169.37,-33.53l294.8 0 223.94 3.25 0 94.11 -513.07 0c-24.57,0 -40.87,2.53 -48.9,7.57 -8.03,5.05 -12.05,15.15 -12.05,30.29l0 486.81c0,15.14 4.02,25.24 12.05,30.29 8.03,5.04 24.33,7.57 48.9,7.57l341.57 0c24.57,0 41.1,-2.53 49.61,-7.57 8.5,-5.05 12.76,-15.15 12.76,-30.29l0 -191.48 -170.08 0 0 -97.36 324.56 0 0 262.87c0,66.36 -14.88,110.71 -44.64,133.07 -29.77,22.35 -86.23,33.53 -169.37,33.53zm1117.13 -5.41l-160.16 0 0 -336.44 -377 -417.56 188.5 0 229.6 257.46 41.1 51.92 2.84 0c1.89,-2.88 15.59,-19.47 41.1,-49.75l231.03 -259.63 185.66 0 -382.67 417.56 0 336.44z" style="fill: rgb(85, 89, 92); fill-rule: nonzero;"/>
      <g>
        <path class="fil8" d="M2342.05 10466.11l-136.81 0c-27.66,0 -46.43,-4.86 -56.3,-14.57 -9.88,-9.71 -14.82,-29.22 -14.82,-58.53l0 -202.49c0,-29.31 4.94,-48.9 14.82,-58.77 9.87,-9.88 28.64,-14.82 56.3,-14.82l136.81 0c27.66,0 46.51,4.94 56.55,14.82 10.04,9.87 15.06,29.46 15.06,58.77l0 202.49c0,28.98 -5.02,48.4 -15.06,58.28 -10.04,9.88 -28.89,14.82 -56.55,14.82zm28.15 -58.77l0 -234.11c0,-8.56 -1.65,-14.07 -4.94,-16.54 -3.29,-2.47 -10.54,-3.71 -21.73,-3.71l-139.28 0c-11.19,0 -18.44,1.24 -21.73,3.71 -3.29,2.47 -4.94,7.98 -4.94,16.54l0 234.11c0,8.56 1.65,14.07 4.94,16.54 3.29,2.47 10.54,3.71 21.73,3.71l139.28 0c11.19,0 18.44,-1.24 21.73,-3.71 3.29,-2.47 4.94,-7.98 4.94,-16.54zm327.94 -191.14l0 247.44c-13.83,0.99 -32.6,1.48 -56.3,1.48l-86.93 0c-26.34,0 -44.86,-4.28 -55.56,-12.84 -10.7,-8.56 -16.05,-25.85 -16.05,-51.86l0 -184.22 43.46 0 0 191.63c0,8.23 1.65,13.58 4.94,16.05 3.29,2.47 10.54,3.71 21.73,3.71l101.25 0 0 -211.39 43.46 0zm113.1 247.44l-43.46 0 0 -186.2c0,-27.33 4.61,-44.61 13.83,-51.85 9.22,-7.25 27.98,-10.87 56.3,-10.87l54.82 1.48 0 35.07 -54.82 0c-10.86,0 -18.03,1.31 -21.48,3.95 -3.46,2.63 -5.19,8.23 -5.19,16.79l0 191.63zm396.59 1.48l-77.05 0 -59.76 -1.48 0 -36.05 135.33 0c10.86,0 17.94,-1.24 21.23,-3.71 3.3,-2.47 4.94,-7.82 4.94,-16.05l0 -35.07c0,-8.89 -2.14,-14.48 -6.42,-16.79 -4.28,-2.3 -14.65,-3.62 -31.11,-3.95l-55.81 -0.99c-13.5,-0.33 -24.12,-1.07 -31.86,-2.22 -7.74,-1.15 -14.9,-3.37 -21.48,-6.67 -6.59,-3.29 -11.2,-8.23 -13.83,-14.81 -2.64,-6.59 -3.95,-15.31 -3.95,-26.18l0 -26.67c0,-24.04 5.18,-40 15.55,-47.91 10.38,-7.9 28.9,-11.85 55.57,-11.85l60.75 0 58.27 1.48 0 34.08 -120.5 0c-10.87,0 -17.95,1.32 -21.24,3.95 -3.29,2.63 -4.94,8.23 -4.94,16.79l0 26.18c0,8.56 1.98,13.99 5.93,16.3 3.95,2.3 13.5,3.62 28.64,3.95l53.84 0.99c28.64,0.65 48.48,4.11 59.51,10.37 11.03,6.25 16.54,19.59 16.54,40l0 32.11c0,25.68 -4.6,42.8 -13.82,51.36 -9.22,8.56 -27.33,12.84 -54.33,12.84zm279.05 0.99l-81.99 0c-26.34,0 -44.78,-4.36 -55.31,-13.09 -10.54,-8.72 -15.81,-26.09 -15.81,-52.1l0 -121.99c0,-26.02 5.27,-43.38 15.81,-52.11 10.53,-8.73 28.97,-13.09 55.31,-13.09l81.99 0c26.34,0 44.94,4.36 55.81,13.09 10.86,8.73 16.3,26.09 16.3,52.11l0 121.99c0,26.01 -5.44,43.38 -16.3,52.1 -10.87,8.73 -29.47,13.09 -55.81,13.09zm28.64 -57.29l0 -138.78c0,-8.57 -1.56,-14.16 -4.69,-16.8 -3.13,-2.63 -10.12,-3.95 -20.99,-3.95l-85.93 0c-10.87,0 -18.03,1.32 -21.49,3.95 -3.46,2.64 -5.18,8.23 -5.18,16.8l0 138.78c0,8.23 1.64,13.58 4.93,16.05 3.3,2.47 10.54,3.7 21.74,3.7l85.93 0c10.87,0 17.86,-1.23 20.99,-3.7 3.13,-2.47 4.69,-7.82 4.69,-16.05zm210.4 18.77l0 36.54c-5.6,0.66 -14.81,0.99 -27.66,0.99 -27.98,0 -46.83,-4.03 -56.55,-12.1 -9.71,-8.07 -14.57,-25.76 -14.57,-53.09l0 -280.53 43.47 0 0 288.43c0,8.23 1.56,13.58 4.69,16.05 3.13,2.47 10.12,3.71 20.99,3.71l29.63 0zm257.81 -211.39l0 247.44c-13.83,0.99 -32.6,1.48 -56.3,1.48l-86.93 0c-26.34,0 -44.86,-4.28 -55.56,-12.84 -10.7,-8.56 -16.05,-25.85 -16.05,-51.86l0 -184.22 43.46 0 0 191.63c0,8.23 1.65,13.58 4.94,16.05 3.29,2.47 10.54,3.71 21.73,3.71l101.25 0 0 -211.39 43.46 0zm200.52 211.39l0 36.05c-14.49,0.99 -29.3,1.48 -44.45,1.48 -26.67,0 -45.03,-4.28 -55.07,-12.84 -10.04,-8.56 -15.06,-26.01 -15.06,-52.35l0 -149.65 -38.03 0 0 -34.08 38.03 0 0 -67.17 43.46 0 0 67.17 66.18 0 0 34.08 -66.18 0 0 157.55c0,8.23 1.73,13.58 5.18,16.05 3.46,2.47 10.62,3.71 21.49,3.71l44.45 0zm97.3 -261.27l-48.4 0 0 -46.92 48.4 0 0 46.92zm-2.47 297.32l-43.46 0 0 -247.44 43.46 0 0 247.44zm221.76 2.47l-81.99 0c-26.34,0 -44.78,-4.36 -55.31,-13.09 -10.54,-8.72 -15.81,-26.09 -15.81,-52.1l0 -121.99c0,-26.02 5.27,-43.38 15.81,-52.11 10.53,-8.73 28.97,-13.09 55.31,-13.09l81.99 0c26.34,0 44.94,4.36 55.81,13.09 10.86,8.73 16.3,26.09 16.3,52.11l0 121.99c0,26.01 -5.44,43.38 -16.3,52.1 -10.87,8.73 -29.47,13.09 -55.81,13.09zm28.64 -57.29l0 -138.78c0,-8.57 -1.56,-14.16 -4.69,-16.8 -3.13,-2.63 -10.12,-3.95 -20.99,-3.95l-85.93 0c-10.87,0 -18.03,1.32 -21.49,3.95 -3.46,2.64 -5.18,8.23 -5.18,16.8l0 138.78c0,8.23 1.64,13.58 4.93,16.05 3.3,2.47 10.54,3.7 21.74,3.7l85.93 0c10.87,0 17.86,-1.23 20.99,-3.7 3.13,-2.47 4.69,-7.82 4.69,-16.05zm326.47 54.82l-43.47 0 0 -192.62c0,-8.56 -1.56,-14.16 -4.69,-16.79 -3.13,-2.63 -10.12,-3.95 -20.99,-3.95l-102.73 0 0 213.36 -43.46 0 0 -247.44c10.54,-0.99 29.96,-1.48 58.28,-1.48l85.44 0c26.34,0 44.86,4.44 55.56,13.33 10.71,8.89 16.06,26.35 16.06,52.36l0 183.23zm252.86 -297.32l-48.4 0 0 -46.92 48.4 0 0 46.92zm-2.47 297.32l-43.46 0 0 -247.44 43.46 0 0 247.44zm206.45 1.48l-77.05 0 -59.76 -1.48 0 -36.05 135.33 0c10.86,0 17.94,-1.24 21.23,-3.71 3.3,-2.47 4.94,-7.82 4.94,-16.05l0 -35.07c0,-8.89 -2.14,-14.48 -6.42,-16.79 -4.28,-2.3 -14.65,-3.62 -31.11,-3.95l-55.81 -0.99c-13.5,-0.33 -24.12,-1.07 -31.86,-2.22 -7.74,-1.15 -14.9,-3.37 -21.48,-6.67 -6.59,-3.29 -11.2,-8.23 -13.83,-14.81 -2.64,-6.59 -3.95,-15.31 -3.95,-26.18l0 -26.67c0,-24.04 5.18,-40 15.55,-47.91 10.38,-7.9 28.9,-11.85 55.57,-11.85l60.75 0 58.27 1.48 0 34.08 -120.5 0c-10.87,0 -17.95,1.32 -21.24,3.95 -3.29,2.63 -4.94,8.23 -4.94,16.79l0 26.18c0,8.56 1.98,13.99 5.93,16.3 3.95,2.3 13.5,3.62 28.64,3.95l53.84 0.99c28.64,0.65 48.48,4.11 59.51,10.37 11.03,6.25 16.54,19.59 16.54,40l0 32.11c0,25.68 -4.6,42.8 -13.82,51.36 -9.22,8.56 -27.33,12.84 -54.33,12.84zm407.95 96.8l-59.76 -1.48 0 -34.08 53.83 0c13.17,0 22.06,-1.81 26.67,-5.43 4.61,-3.62 6.92,-10.37 6.92,-20.25l0 -37.04 -99.77 0c-26.34,0 -44.86,-4.36 -55.56,-13.09 -10.7,-8.72 -16.05,-26.09 -16.05,-52.1l0 -182.25 43.46 0 0 189.65c0,8.24 1.56,13.67 4.69,16.3 3.13,2.64 9.96,3.95 20.5,3.95l102.73 0 0 -209.9 43.46 0 0 281.52c0,26.01 -5.1,43.21 -15.31,51.61 -10.21,8.4 -28.81,12.59 -55.81,12.59zm291.89 -95.81l-81.99 0c-26.34,0 -44.78,-4.36 -55.31,-13.09 -10.54,-8.72 -15.81,-26.09 -15.81,-52.1l0 -121.99c0,-26.02 5.27,-43.38 15.81,-52.11 10.53,-8.73 28.97,-13.09 55.31,-13.09l81.99 0c26.34,0 44.94,4.36 55.81,13.09 10.86,8.73 16.3,26.09 16.3,52.11l0 121.99c0,26.01 -5.44,43.38 -16.3,52.1 -10.87,8.73 -29.47,13.09 -55.81,13.09zm28.64 -57.29l0 -138.78c0,-8.57 -1.56,-14.16 -4.69,-16.8 -3.13,-2.63 -10.12,-3.95 -20.99,-3.95l-85.93 0c-10.87,0 -18.03,1.32 -21.49,3.95 -3.46,2.64 -5.18,8.23 -5.18,16.8l0 138.78c0,8.23 1.64,13.58 4.93,16.05 3.3,2.47 10.54,3.7 21.74,3.7l85.93 0c10.87,0 17.86,-1.23 20.99,-3.7 3.13,-2.47 4.69,-7.82 4.69,-16.05zm324.49 -192.62l0 247.44c-13.83,0.99 -32.6,1.48 -56.3,1.48l-86.93 0c-26.34,0 -44.86,-4.28 -55.56,-12.84 -10.7,-8.56 -16.05,-25.85 -16.05,-51.86l0 -184.22 43.46 0 0 191.63c0,8.23 1.65,13.58 4.94,16.05 3.29,2.47 10.54,3.71 21.73,3.71l101.25 0 0 -211.39 43.46 0zm113.1 247.44l-43.46 0 0 -186.2c0,-27.33 4.61,-44.61 13.83,-51.85 9.22,-7.25 27.98,-10.87 56.3,-10.87l54.82 1.48 0 35.07 -54.82 0c-10.86,0 -18.03,1.31 -21.48,3.95 -3.46,2.63 -5.19,8.23 -5.19,16.79l0 191.63zm624.77 0l-43.47 0 0 -192.62c0,-8.56 -1.64,-14.16 -4.94,-16.79 -3.29,-2.63 -10.37,-3.95 -21.23,-3.95l-89.89 0 0 213.36 -43.46 0 0 -213.36 -116.07 0 0 213.36 -43.46 0 0 -247.44c10.87,-0.99 31.94,-1.48 63.22,-1.48l227.19 0c26.34,0 44.94,4.36 55.81,13.09 10.86,8.72 16.3,26.09 16.3,52.1l0 183.73zm279.04 -182.74l0 182.74c-14.49,0.99 -39.84,1.48 -76.06,1.48l-72.6 0c-27.66,0 -46.34,-4.53 -56.06,-13.58 -9.71,-9.05 -14.57,-25.44 -14.57,-49.14l0 -30.13c0,-21.4 5.27,-35.72 15.81,-42.97 10.53,-7.24 29.47,-10.86 56.79,-10.86l103.23 0 0 -47.42c0,-8.56 -1.73,-14.16 -5.19,-16.79 -3.46,-2.63 -10.62,-3.95 -21.48,-3.95l-126.44 0 0 -34.08c9.22,-0.99 27.33,-1.48 54.33,-1.48l69.64 0c28.64,0 47.9,4.2 57.78,12.59 9.88,8.4 14.82,26.26 14.82,53.59zm-43.46 146.69l0 -75.57 -106.19 0c-10.86,0 -17.94,1.32 -21.24,3.95 -3.29,2.64 -4.94,8.23 -4.94,16.79l0 35.07c0,8.23 1.65,13.58 4.94,16.05 3.3,2.47 10.54,3.71 21.73,3.71l105.7 0zm246.94 37.53l-77.05 0 -59.76 -1.48 0 -36.05 135.33 0c10.86,0 17.94,-1.24 21.23,-3.71 3.3,-2.47 4.94,-7.82 4.94,-16.05l0 -35.07c0,-8.89 -2.14,-14.48 -6.42,-16.79 -4.28,-2.3 -14.65,-3.62 -31.11,-3.95l-55.81 -0.99c-13.5,-0.33 -24.12,-1.07 -31.86,-2.22 -7.74,-1.15 -14.9,-3.37 -21.48,-6.67 -6.59,-3.29 -11.2,-8.23 -13.83,-14.81 -2.64,-6.59 -3.95,-15.31 -3.95,-26.18l0 -26.67c0,-24.04 5.18,-40 15.55,-47.91 10.38,-7.9 28.9,-11.85 55.57,-11.85l60.75 0 58.27 1.48 0 34.08 -120.5 0c-10.87,0 -17.95,1.32 -21.24,3.95 -3.29,2.63 -4.94,8.23 -4.94,16.79l0 26.18c0,8.56 1.98,13.99 5.93,16.3 3.95,2.3 13.5,3.62 28.64,3.95l53.84 0.99c28.64,0.65 48.48,4.11 59.51,10.37 11.03,6.25 16.54,19.59 16.54,40l0 32.11c0,25.68 -4.6,42.8 -13.82,51.36 -9.22,8.56 -27.33,12.84 -54.33,12.84zm258.8 -37.53l0 36.05c-14.49,0.99 -29.3,1.48 -44.45,1.48 -26.67,0 -45.03,-4.28 -55.07,-12.84 -10.04,-8.56 -15.06,-26.01 -15.06,-52.35l0 -149.65 -38.03 0 0 -34.08 38.03 0 0 -67.17 43.46 0 0 67.17 66.18 0 0 34.08 -66.18 0 0 157.55c0,8.23 1.73,13.58 5.18,16.05 3.46,2.47 10.62,3.71 21.49,3.71l44.45 0zm256.83 0l0 36.05c-13.17,0.99 -31.94,1.48 -56.31,1.48l-81 0c-26.67,0 -45.43,-4.85 -56.3,-14.57 -10.86,-9.71 -16.3,-27.9 -16.3,-54.57l0 -117.55c0,-25.68 5.35,-42.88 16.05,-51.61 10.71,-8.73 29.39,-13.09 56.06,-13.09l75.57 0c26.34,0 44.28,4.45 53.83,13.34 9.55,8.89 14.32,26.5 14.32,52.84l0 76.06 -173.35 0 0 51.86c0,8.56 1.64,14.08 4.94,16.55 3.29,2.47 10.37,3.54 21.23,3.21l141.26 0zm-36.55 -105.2l0 -53.34c0,-8.23 -1.73,-13.58 -5.19,-16.05 -3.45,-2.47 -10.62,-3.71 -21.48,-3.71l-78.04 0c-10.86,0 -17.94,1.24 -21.23,3.71 -3.3,2.47 -4.94,7.82 -4.94,16.05l0 53.34 130.88 0zm152.12 141.25l-43.46 0 0 -186.2c0,-27.33 4.61,-44.61 13.83,-51.85 9.22,-7.25 27.98,-10.87 56.3,-10.87l54.82 1.48 0 35.07 -54.82 0c-10.86,0 -18.03,1.31 -21.48,3.95 -3.46,2.63 -5.19,8.23 -5.19,16.79l0 191.63zm277.56 0l-108.16 0 0 96.8 -43.46 0 0 -344.24c14.16,-0.99 36.05,-1.48 65.69,-1.48l85.93 0c26.35,0 44.95,4.36 55.81,13.09 10.87,8.72 16.3,26.09 16.3,52.1l0 118.54c0,26.01 -5.43,43.38 -16.3,52.1 -10.86,8.73 -29.46,13.09 -55.81,13.09zm28.65 -57.29l0 -135.33c0,-8.56 -1.65,-14.16 -4.94,-16.79 -3.29,-2.63 -10.21,-3.95 -20.74,-3.95l-111.13 0 0 175.82 111.13 0c10.86,0 17.86,-1.23 20.99,-3.7 3.13,-2.47 4.69,-7.82 4.69,-16.05zm158.05 -240.03l-48.4 0 0 -46.92 48.4 0 0 46.92zm-2.47 297.32l-43.46 0 0 -247.44 43.46 0 0 247.44zm278.56 -36.05l0 36.05c-13.17,0.99 -31.94,1.48 -56.31,1.48l-81 0c-26.67,0 -45.43,-4.85 -56.3,-14.57 -10.86,-9.71 -16.3,-27.9 -16.3,-54.57l0 -117.55c0,-25.68 5.35,-42.88 16.05,-51.61 10.71,-8.73 29.39,-13.09 56.06,-13.09l75.57 0c26.34,0 44.28,4.45 53.83,13.34 9.55,8.89 14.32,26.5 14.32,52.84l0 76.06 -173.35 0 0 51.86c0,8.56 1.64,14.08 4.94,16.55 3.29,2.47 10.37,3.54 21.23,3.21l141.26 0zm-36.55 -105.2l0 -53.34c0,-8.23 -1.73,-13.58 -5.19,-16.05 -3.45,-2.47 -10.62,-3.71 -21.48,-3.71l-78.04 0c-10.86,0 -17.94,1.24 -21.23,3.71 -3.3,2.47 -4.94,7.82 -4.94,16.05l0 53.34 130.88 0zm300.78 105.2l0 36.05c-11.52,0.99 -28.15,1.48 -49.88,1.48l-73.1 0c-26.01,0 -44.36,-4.53 -55.07,-13.58 -10.7,-9.05 -16.05,-26.75 -16.05,-53.09l0 -117.06c0,-26.34 5.35,-44.03 16.05,-53.09 10.71,-9.05 29.06,-13.58 55.07,-13.58l73.1 0 49.88 1.48 0 34.08 -124.46 0c-10.86,0 -17.94,1.32 -21.24,3.95 -3.29,2.63 -4.93,8.23 -4.93,16.79l0 136.81c0,8.23 1.64,13.58 4.93,16.05 3.3,2.47 10.54,3.71 21.74,3.71l123.96 0zm261.77 0l0 36.05c-13.17,0.99 -31.94,1.48 -56.31,1.48l-81 0c-26.67,0 -45.43,-4.85 -56.3,-14.57 -10.86,-9.71 -16.3,-27.9 -16.3,-54.57l0 -117.55c0,-25.68 5.35,-42.88 16.05,-51.61 10.71,-8.73 29.39,-13.09 56.06,-13.09l75.57 0c26.34,0 44.28,4.45 53.83,13.34 9.55,8.89 14.32,26.5 14.32,52.84l0 76.06 -173.35 0 0 51.86c0,8.56 1.64,14.08 4.94,16.55 3.29,2.47 10.37,3.54 21.23,3.21l141.26 0zm-36.55 -105.2l0 -53.34c0,-8.23 -1.73,-13.58 -5.19,-16.05 -3.45,-2.47 -10.62,-3.71 -21.48,-3.71l-78.04 0c-10.86,0 -17.94,1.24 -21.23,3.71 -3.3,2.47 -4.94,7.82 -4.94,16.05l0 53.34 130.88 0zm244.48 142.73l-77.05 0 -59.76 -1.48 0 -36.05 135.33 0c10.86,0 17.94,-1.24 21.23,-3.71 3.3,-2.47 4.94,-7.82 4.94,-16.05l0 -35.07c0,-8.89 -2.14,-14.48 -6.42,-16.79 -4.28,-2.3 -14.65,-3.62 -31.11,-3.95l-55.81 -0.99c-13.5,-0.33 -24.12,-1.07 -31.86,-2.22 -7.74,-1.15 -14.9,-3.37 -21.48,-6.67 -6.59,-3.29 -11.2,-8.23 -13.83,-14.81 -2.64,-6.59 -3.95,-15.31 -3.95,-26.18l0 -26.67c0,-24.04 5.18,-40 15.55,-47.91 10.38,-7.9 28.9,-11.85 55.57,-11.85l60.75 0 58.27 1.48 0 34.08 -120.5 0c-10.87,0 -17.95,1.32 -21.24,3.95 -3.29,2.63 -4.94,8.23 -4.94,16.79l0 26.18c0,8.56 1.98,13.99 5.93,16.3 3.95,2.3 13.5,3.62 28.64,3.95l53.84 0.99c28.64,0.65 48.48,4.11 59.51,10.37 11.03,6.25 16.54,19.59 16.54,40l0 32.11c0,25.68 -4.6,42.8 -13.82,51.36 -9.22,8.56 -27.33,12.84 -54.33,12.84zm181.26 -1.48l-55.32 0 0 -50.87 55.32 0 0 50.87zm-7807.83 -651.23c-15.81,1.13 -41.21,1.69 -76.2,1.69l-106.12 0c-31.23,0 -52.49,-5.83 -63.78,-17.49 -11.29,-11.67 -16.93,-34.25 -16.93,-67.74l0 -225.77c0,-33.49 5.64,-56.16 16.93,-68.02 11.29,-11.85 32.55,-17.78 63.78,-17.78l106.12 0 76.2 1.7 0 41.2 -184.01 0c-12.42,0 -20.41,1.41 -23.99,4.23 -3.57,2.82 -5.36,9.13 -5.36,18.91l0 261.9c0,9.79 1.79,16.09 5.36,18.91 3.58,2.82 11.57,4.23 23.99,4.23l184.01 0 0 44.03zm239.89 2.82l-93.7 0c-30.11,0 -51.18,-4.98 -63.22,-14.96 -12.04,-9.97 -18.06,-29.82 -18.06,-59.54l0 -139.42c0,-29.73 6.02,-49.58 18.06,-59.55 12.04,-9.97 33.11,-14.96 63.22,-14.96l93.7 0c30.1,0 51.36,4.99 63.78,14.96 12.41,9.97 18.62,29.82 18.62,59.55l0 139.42c0,29.72 -6.21,49.57 -18.62,59.54 -12.42,9.98 -33.68,14.96 -63.78,14.96zm32.73 -65.47l0 -158.61c0,-9.78 -1.78,-16.18 -5.36,-19.19 -3.57,-3.01 -11.57,-4.52 -23.99,-4.52l-98.21 0c-12.42,0 -20.6,1.51 -24.55,4.52 -3.96,3.01 -5.93,9.41 -5.93,19.19l0 158.61c0,9.4 1.88,15.52 5.64,18.34 3.77,2.82 12.05,4.23 24.84,4.23l98.21 0c12.42,0 20.42,-1.41 23.99,-4.23 3.58,-2.82 5.36,-8.94 5.36,-18.34zm541.3 62.65l-49.67 0 0 -220.13c0,-9.79 -1.88,-16.18 -5.65,-19.19 -3.76,-3.01 -11.85,-4.52 -24.27,-4.52l-102.73 0 0 243.84 -49.67 0 0 -243.84 -132.64 0 0 243.84 -49.67 0 0 -282.78c12.42,-1.13 36.5,-1.7 72.25,-1.7l259.64 0c30.1,0 51.36,4.99 63.78,14.96 12.42,9.97 18.63,29.82 18.63,59.55l0 209.97zm252.87 0l-123.61 0 0 110.63 -49.67 0 0 -393.41c16.18,-1.13 41.2,-1.7 75.07,-1.7l98.21 0c30.11,0 51.37,4.99 63.78,14.96 12.42,9.97 18.63,29.82 18.63,59.55l0 135.46c0,29.73 -6.21,49.58 -18.63,59.55 -12.41,9.97 -33.67,14.96 -63.78,14.96zm32.74 -65.48l0 -154.65c0,-9.79 -1.88,-16.18 -5.64,-19.19 -3.77,-3.01 -11.67,-4.52 -23.71,-4.52l-127 0 0 200.94 127 0c12.42,0 20.41,-1.41 23.99,-4.23 3.57,-2.82 5.36,-8.94 5.36,-18.35zm370.84 -217.3l0 282.78c-15.81,1.13 -37.26,1.69 -64.35,1.69l-99.34 0c-30.1,0 -51.27,-4.89 -63.5,-14.67 -12.23,-9.79 -18.34,-29.54 -18.34,-59.27l0 -210.53 49.67 0 0 219c0,9.41 1.88,15.52 5.64,18.34 3.76,2.82 12.04,4.24 24.84,4.24l115.71 0 0 -241.58 49.67 0zm229.16 241.58l0 41.2c-16.55,1.13 -33.49,1.69 -50.8,1.69 -30.48,0 -51.45,-4.89 -62.93,-14.67 -11.48,-9.79 -17.22,-29.73 -17.22,-59.83l0 -171.03 -43.46 0 0 -38.94 43.46 0 0 -76.77 49.67 0 0 76.77 75.64 0 0 38.94 -75.64 0 0 180.06c0,9.41 1.98,15.52 5.93,18.34 3.95,2.82 12.14,4.24 24.55,4.24l50.8 0zm293.52 0l0 41.2c-15.06,1.13 -36.5,1.69 -64.35,1.69l-92.57 0c-30.48,0 -51.93,-5.55 -64.34,-16.65 -12.42,-11.1 -18.63,-31.89 -18.63,-62.37l0 -134.34c0,-29.35 6.11,-49.01 18.34,-58.98 12.23,-9.97 33.59,-14.96 64.07,-14.96l86.36 0c30.1,0 50.61,5.08 61.52,15.24 10.91,10.16 16.37,30.29 16.37,60.4l0 86.92 -198.12 0 0 59.27c0,9.78 1.88,16.08 5.64,18.91 3.77,2.82 11.86,4.04 24.28,3.67l161.43 0zm-41.77 -120.23l0 -60.96c0,-9.41 -1.98,-15.52 -5.93,-18.34 -3.95,-2.83 -12.14,-4.24 -24.55,-4.24l-89.18 0c-12.42,0 -20.51,1.41 -24.28,4.24 -3.76,2.82 -5.64,8.93 -5.64,18.34l0 60.96 149.58 0zm173.85 161.43l-49.67 0 0 -212.79c0,-31.24 5.26,-50.99 15.8,-59.27 10.54,-8.28 31.99,-12.42 64.35,-12.42l62.65 1.7 0 40.07 -62.65 0c-12.42,0 -20.61,1.51 -24.56,4.52 -3.95,3.01 -5.92,9.4 -5.92,19.19l0 219zm488.81 1.69l-110.63 0 -77.33 -1.69 0 -42.33 189.65 0c12.42,0 20.6,-1.51 24.55,-4.52 3.95,-3.01 5.93,-9.22 5.93,-18.63l0 -93.69c0,-10.54 -2.63,-17.03 -7.9,-19.48 -5.27,-2.44 -18.06,-3.66 -38.38,-3.66 -9.79,0 -23.99,-0.19 -42.62,-0.57 -18.63,-0.37 -31.51,-0.56 -38.66,-0.56 -38.76,0 -64.54,-4.71 -77.33,-14.11 -12.8,-9.41 -19.19,-28.41 -19.19,-57.01l0 -71.12c0,-27.47 5.74,-45.91 17.21,-55.32 11.48,-9.4 32.83,-14.11 64.07,-14.11l92.57 0 78.45 1.7 0 39.51 -172.15 0c-12.42,0 -20.6,1.5 -24.56,4.51 -3.95,3.01 -5.92,9.41 -5.92,19.19l0 80.15c0,10.54 2.73,17.03 8.18,19.48 5.46,2.44 19.66,3.85 42.62,4.23l77.33 1.13c39.51,0.75 65.38,5.36 77.61,13.83 12.23,8.46 18.34,27.37 18.34,56.72l0 84.1c0,27.47 -5.27,46.38 -15.8,56.73 -10.54,10.35 -32.55,15.52 -66.04,15.52zm375.35 -42.89l0 41.2c-13.17,1.13 -32.17,1.69 -57,1.69l-83.54 0c-29.73,0 -50.71,-5.17 -62.94,-15.52 -12.23,-10.35 -18.34,-30.57 -18.34,-60.68l0 -133.77c0,-30.1 6.11,-50.33 18.34,-60.68 12.23,-10.34 33.21,-15.52 62.94,-15.52l83.54 0 57 1.7 0 38.94 -142.24 0c-12.41,0 -20.5,1.51 -24.27,4.52 -3.76,3.01 -5.64,9.4 -5.64,19.19l0 156.35c0,9.41 1.88,15.52 5.64,18.34 3.77,2.82 12.05,4.24 24.84,4.24l141.67 0zm116.84 -298.59l-55.31 0 0 -53.62 55.31 0 0 53.62zm-2.82 339.79l-49.67 0 0 -282.78 49.67 0 0 282.78zm318.35 -41.2l0 41.2c-15.06,1.13 -36.5,1.69 -64.35,1.69l-92.57 0c-30.48,0 -51.93,-5.55 -64.34,-16.65 -12.42,-11.1 -18.63,-31.89 -18.63,-62.37l0 -134.34c0,-29.35 6.11,-49.01 18.34,-58.98 12.23,-9.97 33.59,-14.96 64.07,-14.96l86.36 0c30.1,0 50.61,5.08 61.52,15.24 10.91,10.16 16.37,30.29 16.37,60.4l0 86.92 -198.12 0 0 59.27c0,9.78 1.88,16.08 5.64,18.91 3.77,2.82 11.86,4.04 24.28,3.67l161.43 0zm-41.77 -120.23l0 -60.96c0,-9.41 -1.98,-15.52 -5.93,-18.34 -3.95,-2.83 -12.14,-4.24 -24.55,-4.24l-89.18 0c-12.42,0 -20.51,1.41 -24.28,4.24 -3.76,2.82 -5.64,8.93 -5.64,18.34l0 60.96 149.58 0zm371.97 161.43l-49.68 0 0 -220.13c0,-9.79 -1.78,-16.18 -5.36,-19.19 -3.57,-3.01 -11.57,-4.52 -23.99,-4.52l-117.4 0 0 243.84 -49.67 0 0 -282.78c12.04,-1.13 34.24,-1.7 66.6,-1.7l97.65 0c30.11,0 51.27,5.08 63.5,15.24 12.23,10.16 18.35,30.11 18.35,59.83l0 209.41zm297.45 -41.2l0 41.2c-13.17,1.13 -32.17,1.69 -57,1.69l-83.54 0c-29.73,0 -50.71,-5.17 -62.94,-15.52 -12.23,-10.35 -18.34,-30.57 -18.34,-60.68l0 -133.77c0,-30.1 6.11,-50.33 18.34,-60.68 12.23,-10.34 33.21,-15.52 62.94,-15.52l83.54 0 57 1.7 0 38.94 -142.24 0c-12.41,0 -20.5,1.51 -24.27,4.52 -3.76,3.01 -5.64,9.4 -5.64,19.19l0 156.35c0,9.41 1.88,15.52 5.64,18.34 3.77,2.82 12.05,4.24 24.84,4.24l141.67 0zm299.16 0l0 41.2c-15.06,1.13 -36.5,1.69 -64.35,1.69l-92.57 0c-30.48,0 -51.93,-5.55 -64.34,-16.65 -12.42,-11.1 -18.63,-31.89 -18.63,-62.37l0 -134.34c0,-29.35 6.11,-49.01 18.34,-58.98 12.23,-9.97 33.59,-14.96 64.07,-14.96l86.36 0c30.1,0 50.61,5.08 61.52,15.24 10.91,10.16 16.37,30.29 16.37,60.4l0 86.92 -198.12 0 0 59.27c0,9.78 1.88,16.08 5.64,18.91 3.77,2.82 11.86,4.04 24.28,3.67l161.43 0zm-41.77 -120.23l0 -60.96c0,-9.41 -1.98,-15.52 -5.93,-18.34 -3.95,-2.83 -12.14,-4.24 -24.55,-4.24l-89.18 0c-12.42,0 -20.51,1.41 -24.28,4.24 -3.76,2.82 -5.64,8.93 -5.64,18.34l0 60.96 149.58 0zm480.34 -231.98l0 39.51 -103.29 0c-12.79,0 -21.07,1.41 -24.84,4.23 -3.76,2.82 -5.64,9.12 -5.64,18.91l0 79.02c0,9.78 1.69,16.09 5.08,18.91 3.39,2.82 11.48,4.23 24.27,4.23l133.77 0 -21.45 -57.01 46.29 -16.93 22.01 58.7 57.01 -23.14 14.68 39.51 -57.01 23.14 15.8 40.64c6.4,17.31 9.6,40.45 9.6,69.43l0 22.58c0,28.22 -5.65,47.69 -16.94,58.42 -11.28,10.72 -32.36,16.08 -63.21,16.08l-158.61 0c-30.86,0 -51.84,-5.27 -62.94,-15.8 -11.1,-10.54 -16.65,-30.11 -16.65,-58.7l0 -70.56c0,-21.07 3.39,-37.25 10.16,-48.54 6.78,-11.29 20.13,-18.44 40.08,-21.45 -19.57,-7.53 -29.35,-26.34 -29.35,-56.44l0 -59.83c0,-25.97 5.55,-43.56 16.65,-52.78 11.1,-9.22 32.27,-13.83 63.5,-13.83l44.59 0 56.44 1.7zm60.4 246.66l-14.68 -38.95 -167.64 0c-12.79,0 -21.07,1.41 -24.83,4.23 -3.76,2.82 -5.65,8.94 -5.65,18.35l0 98.77c0,9.79 1.89,16.09 5.65,18.91 3.76,2.82 12.04,4.24 24.83,4.24l158.61 0c12.8,0 20.98,-1.42 24.55,-4.24 3.58,-2.82 5.37,-9.12 5.37,-18.91l0 -29.91c0,-24.08 -2.07,-41.58 -6.21,-52.49zm603.39 146.75l-53.06 0 -34.99 -95.39 -185.14 0 -34.43 95.39 -51.37 0 147.32 -393.41 63.78 0 147.89 393.41zm-181.19 -347.7l-77.89 210.54 156.91 0 -77.89 -210.54 -1.13 0zm275.45 347.7l-49.67 0 0 -212.79c0,-31.24 5.26,-50.99 15.8,-59.27 10.54,-8.28 31.99,-12.42 64.35,-12.42l62.65 1.7 0 40.07 -62.65 0c-12.42,0 -20.61,1.51 -24.56,4.52 -3.95,3.01 -5.92,9.4 -5.92,19.19l0 219zm291.81 -41.2l0 41.2c-16.55,1.13 -33.49,1.69 -50.8,1.69 -30.48,0 -51.45,-4.89 -62.93,-14.67 -11.48,-9.79 -17.22,-29.73 -17.22,-59.83l0 -171.03 -43.46 0 0 -38.94 43.46 0 0 -76.77 49.67 0 0 76.77 75.64 0 0 38.94 -75.64 0 0 180.06c0,9.41 1.98,15.52 5.93,18.34 3.95,2.82 12.14,4.24 24.55,4.24l50.8 0zm402.46 42.89l-110.63 0 -77.33 -1.69 0 -42.33 189.65 0c12.42,0 20.6,-1.51 24.55,-4.52 3.95,-3.01 5.93,-9.22 5.93,-18.63l0 -93.69c0,-10.54 -2.63,-17.03 -7.9,-19.48 -5.27,-2.44 -18.06,-3.66 -38.38,-3.66 -9.79,0 -23.99,-0.19 -42.62,-0.57 -18.63,-0.37 -31.51,-0.56 -38.66,-0.56 -38.76,0 -64.54,-4.71 -77.33,-14.11 -12.8,-9.41 -19.19,-28.41 -19.19,-57.01l0 -71.12c0,-27.47 5.74,-45.91 17.21,-55.32 11.48,-9.4 32.83,-14.11 64.07,-14.11l92.57 0 78.45 1.7 0 39.51 -172.15 0c-12.42,0 -20.6,1.5 -24.56,4.51 -3.95,3.01 -5.92,9.41 -5.92,19.19l0 80.15c0,10.54 2.73,17.03 8.18,19.48 5.46,2.44 19.66,3.85 42.62,4.23l77.33 1.13c39.51,0.75 65.38,5.36 77.61,13.83 12.23,8.46 18.34,27.37 18.34,56.72l0 84.1c0,27.47 -5.27,46.38 -15.8,56.73 -10.54,10.35 -32.55,15.52 -66.04,15.52zm320.04 110.63l-68.3 -1.69 0 -38.95 61.53 0c15.05,0 25.21,-2.07 30.47,-6.2 5.27,-4.14 7.91,-11.86 7.91,-23.15l0 -42.33 -114.02 0c-30.1,0 -51.27,-4.99 -63.5,-14.96 -12.23,-9.97 -18.34,-29.82 -18.34,-59.55l0 -208.27 49.67 0 0 216.74c0,9.41 1.78,15.62 5.36,18.63 3.57,3.01 11.38,4.51 23.42,4.51l117.41 0 0 -239.88 49.67 0 0 321.73c0,29.72 -5.83,49.38 -17.5,58.98 -11.66,9.6 -32.93,14.39 -63.78,14.39zm408.66 -112.32l-49.68 0 0 -220.13c0,-9.79 -1.78,-16.18 -5.36,-19.19 -3.57,-3.01 -11.57,-4.52 -23.99,-4.52l-117.4 0 0 243.84 -49.67 0 0 -282.78c12.04,-1.13 34.24,-1.7 66.6,-1.7l97.65 0c30.11,0 51.27,5.08 63.5,15.24 12.23,10.16 18.35,30.11 18.35,59.83l0 209.41zm315.52 -41.2l0 41.2c-15.06,1.13 -36.5,1.69 -64.35,1.69l-92.57 0c-30.48,0 -51.93,-5.55 -64.34,-16.65 -12.42,-11.1 -18.63,-31.89 -18.63,-62.37l0 -134.34c0,-29.35 6.11,-49.01 18.34,-58.98 12.23,-9.97 33.59,-14.96 64.07,-14.96l86.36 0c30.1,0 50.61,5.08 61.52,15.24 10.91,10.16 16.37,30.29 16.37,60.4l0 86.92 -198.12 0 0 59.27c0,9.78 1.88,16.08 5.64,18.91 3.77,2.82 11.86,4.04 24.28,3.67l161.43 0zm-41.77 -120.23l0 -60.96c0,-9.41 -1.98,-15.52 -5.93,-18.34 -3.95,-2.83 -12.14,-4.24 -24.55,-4.24l-89.18 0c-12.42,0 -20.51,1.41 -24.28,4.24 -3.76,2.82 -5.64,8.93 -5.64,18.34l0 60.96 149.58 0zm173.85 161.43l-49.67 0 0 -212.79c0,-31.24 5.26,-50.99 15.8,-59.27 10.54,-8.28 31.99,-12.42 64.35,-12.42l62.65 1.7 0 40.07 -62.65 0c-12.42,0 -20.61,1.51 -24.56,4.52 -3.95,3.01 -5.92,9.4 -5.92,19.19l0 219z" style="fill: rgb(85, 89, 92); fill-rule: nonzero;"/>
        <path class="fil8" d="M9795.68 9924.73l-81.28 -1.69 0 -38.95 73.94 0c15.05,0 25.21,-2.07 30.48,-6.2 5.27,-4.14 7.9,-11.86 7.9,-23.15l0 -42.33 -123.61 0c-30.86,0 -52.31,-4.99 -64.35,-14.96 -12.04,-9.97 -18.06,-29.82 -18.06,-59.55l0 -136.59c0,-29.73 6.11,-49.39 18.34,-58.98 12.23,-9.6 33.59,-14.4 64.07,-14.4l94.82 0 78.46 1.7 0 321.73c0,29.72 -5.74,49.38 -17.22,58.98 -11.47,9.6 -32.64,14.39 -63.49,14.39zm31.04 -155.22l0 -200.94 -126.44 0c-12.41,0 -20.5,1.51 -24.27,4.52 -3.76,3.01 -5.64,9.4 -5.64,19.19l0 154.09c0,9.41 1.79,15.62 5.36,18.63 3.58,3.01 11.38,4.51 23.43,4.51l127.56 0zm293.51 155.22l-68.3 -1.69 0 -38.95 61.53 0c15.05,0 25.21,-2.07 30.47,-6.2 5.27,-4.14 7.91,-11.86 7.91,-23.15l0 -42.33 -114.02 0c-30.1,0 -51.27,-4.99 -63.5,-14.96 -12.23,-9.97 -18.34,-29.82 -18.34,-59.55l0 -208.27 49.67 0 0 216.74c0,9.41 1.78,15.62 5.36,18.63 3.57,3.01 11.38,4.51 23.42,4.51l117.41 0 0 -239.88 49.67 0 0 321.73c0,29.72 -5.83,49.38 -17.5,58.98 -11.66,9.6 -32.93,14.39 -63.78,14.39z" style="fill: rgb(85, 89, 92); fill-rule: nonzero;"/>
      </g>
    </g>
  </g>
</svg>